<svg xmlns="http://www.w3.org/2000/svg" xmlns:xlink="http://www.w3.org/1999/xlink" version="1.1" width="256" height="256" viewBox="0 0 256 256" xml:space="preserve">

<defs>
</defs>
<g style="stroke: none; stroke-width: 0; stroke-dasharray: none; stroke-linecap: butt; stroke-linejoin: miter; stroke-miterlimit: 10; fill: none; fill-rule: nonzero; opacity: 1;" transform="translate(1.4065934065934016 1.4065934065934016) scale(2.81 2.81)" >
	<path d="M 90 18.862 v 13.175 c 0 0.673 -0.546 1.218 -1.218 1.218 H 28.575 c -0.673 0 -1.218 -0.546 -1.218 -1.218 V 18.862 c 0 -0.673 0.546 -1.218 1.218 -1.218 h 60.207 C 89.454 17.643 90 18.189 90 18.862 z" style="stroke: none; stroke-width: 1; stroke-dasharray: none; stroke-linecap: butt; stroke-linejoin: miter; stroke-miterlimit: 10; fill: rgb(255,111,0); fill-rule: nonzero; opacity: 1;" transform=" matrix(1 0 0 1 0 0) " stroke-linecap="round" />
	<path d="M 90 38.412 v 13.175 c 0 0.673 -0.546 1.218 -1.218 1.218 H 28.575 c -0.673 0 -1.218 -0.546 -1.218 -1.218 V 38.412 c 0 -0.673 0.546 -1.218 1.218 -1.218 h 60.207 C 89.454 37.194 90 37.74 90 38.412 z" style="stroke: none; stroke-width: 1; stroke-dasharray: none; stroke-linecap: butt; stroke-linejoin: miter; stroke-miterlimit: 10; fill: rgb(255,111,0); fill-rule: nonzero; opacity: 1;" transform=" matrix(1 0 0 1 0 0) " stroke-linecap="round" />
	<path d="M 90 57.963 v 13.175 c 0 0.673 -0.546 1.218 -1.218 1.218 H 28.575 c -0.673 0 -1.218 -0.546 -1.218 -1.218 V 57.963 c 0 -0.673 0.546 -1.218 1.218 -1.218 h 60.207 C 89.454 56.745 90 57.29 90 57.963 z" style="stroke: none; stroke-width: 1; stroke-dasharray: none; stroke-linecap: butt; stroke-linejoin: miter; stroke-miterlimit: 10; fill: rgb(255,111,0); fill-rule: nonzero; opacity: 1;" transform=" matrix(1 0 0 1 0 0) " stroke-linecap="round" />
	<path d="M 22.197 18.369 V 32.53 c 0 0.401 -0.325 0.725 -0.725 0.725 H 0.725 C 0.325 33.255 0 32.931 0 32.53 V 18.369 c 0 -0.401 0.325 -0.725 0.725 -0.725 h 20.746 C 21.872 17.643 22.197 17.968 22.197 18.369 z" style="stroke: none; stroke-width: 1; stroke-dasharray: none; stroke-linecap: butt; stroke-linejoin: miter; stroke-miterlimit: 10; fill: rgb(255,111,0); fill-rule: nonzero; opacity: 1;" transform=" matrix(1 0 0 1 0 0) " stroke-linecap="round" />
	<path d="M 22.197 37.919 v 14.161 c 0 0.401 -0.325 0.725 -0.725 0.725 H 0.725 C 0.325 52.806 0 52.481 0 52.081 V 37.919 c 0 -0.401 0.325 -0.725 0.725 -0.725 h 20.746 C 21.872 37.194 22.197 37.519 22.197 37.919 z" style="stroke: none; stroke-width: 1; stroke-dasharray: none; stroke-linecap: butt; stroke-linejoin: miter; stroke-miterlimit: 10; fill: rgb(255,111,0); fill-rule: nonzero; opacity: 1;" transform=" matrix(1 0 0 1 0 0) " stroke-linecap="round" />
	<path d="M 22.197 57.47 v 14.161 c 0 0.401 -0.325 0.725 -0.725 0.725 H 0.725 C 0.325 72.357 0 72.032 0 71.631 V 57.47 c 0 -0.401 0.325 -0.725 0.725 -0.725 h 20.746 C 21.872 56.745 22.197 57.069 22.197 57.47 z" style="stroke: none; stroke-width: 1; stroke-dasharray: none; stroke-linecap: butt; stroke-linejoin: miter; stroke-miterlimit: 10; fill: rgb(255,111,0); fill-rule: nonzero; opacity: 1;" transform=" matrix(1 0 0 1 0 0) " stroke-linecap="round" />
</g>
</svg>